<svg width="28" height="28" viewBox="0 0 28 28" fill="none" xmlns="http://www.w3.org/2000/svg">
<path fill-rule="evenodd" clip-rule="evenodd" d="M7.45119 7.04624C7.2997 7.75309 7.27396 8.41277 7.29567 8.94688C7.3075 9.23815 7.33368 9.49767 7.36333 9.71448C6.81626 9.9609 6.15066 9.85939 5.70123 9.40997C5.12069 8.82942 5.12069 7.88816 5.70123 7.30762C6.17502 6.83383 6.88905 6.7467 7.45119 7.04624ZM9.71753 6.52309C10.5517 7.86784 10.3851 9.65689 9.21779 10.8242C7.8562 12.1858 5.64861 12.1858 4.28702 10.8242C2.92542 9.46258 2.92542 7.255 4.28702 5.8934C5.33655 4.84387 6.88872 4.60333 8.16866 5.17178C8.49181 4.61719 8.92117 4.0843 9.48184 3.60613L5.41043 3.60613C4.94474 3.60613 4.49812 3.79113 4.16883 4.12042L2.51398 5.77527C2.18469 6.10456 1.99969 6.55118 1.99969 7.01687V12.3845C1.99969 12.8502 2.18469 13.2968 2.51398 13.6261L12.8215 23.9336C13.5072 24.6193 14.619 24.6193 15.3047 23.9336L22.3271 16.9112C23.0128 16.2255 23.0128 15.1137 22.3271 14.428L12.183 4.28392C12.0613 4.33514 11.9451 4.38826 11.8342 4.443C10.69 5.00795 10.0657 5.76837 9.71753 6.52309ZM14.4234 3.69582L20.6059 9.87835C22.0744 9.90765 23.501 9.40136 24.548 8.7109C25.1125 8.33866 25.5248 7.94001 25.7665 7.59382C26.0086 7.24711 25.9998 7.07689 25.999 7.06181C25.999 7.06069 25.999 7.06043 25.9991 7.06099C25.908 6.674 25.3771 5.86591 23.9578 5.09348C22.5841 4.34587 20.4944 3.70413 17.5812 3.57408C16.3514 3.51918 15.308 3.56985 14.4234 3.69582ZM22.4326 11.705L23.7413 13.0138C25.2081 14.4805 25.2081 16.8586 23.7413 18.3254L16.7189 25.3478C15.2521 26.8146 12.8741 26.8146 11.4073 25.3478L1.09977 15.0403C0.395402 14.3359 -0.000305176 13.3806 -0.000305176 12.3845V7.01687C-0.000305176 6.02074 0.395402 5.06542 1.09977 4.36106L2.75462 2.70621C3.45898 2.00184 4.41431 1.60613 5.41043 1.60613L10.7779 1.60613C11.3992 1.60613 12.0046 1.76005 12.5431 2.04675C13.9148 1.66211 15.6022 1.48375 17.6704 1.57607C20.8253 1.71691 23.2238 2.41699 24.9139 3.33679C26.5584 4.23177 27.6668 5.41668 27.9459 6.6029C28.133 7.39775 27.8087 8.16246 27.4064 8.73873C26.9858 9.3411 26.3686 9.90603 25.6491 10.3805C24.7596 10.9671 23.6497 11.457 22.4326 11.705Z" fill="currentColor"/>
</svg>
