<svg width="28" height="28" viewBox="0 0 28 28" fill="none" xmlns="http://www.w3.org/2000/svg">
<path fill-rule="evenodd" clip-rule="evenodd" d="M4.07983 0.826629C4.07983 0.370094 4.44992 0 4.90645 0H22.7348C23.1913 0 23.5614 0.370094 23.5614 0.826629V1.62805H24.5873C25.0438 1.62805 25.4139 1.99814 25.4139 2.45468V27.1734C25.4139 27.3928 25.3266 27.6033 25.1713 27.7584C25.016 27.9134 24.8054 28.0004 24.5859 28L24.5873 27.1734C24.5859 28 24.5861 28 24.5859 28H24.585L23.6784 27.9986C23.1009 27.9977 22.2757 27.9965 21.2855 27.9952C19.3049 27.9925 16.6638 27.9893 14.0216 27.9871C11.3792 27.985 8.73614 27.9839 6.75139 27.9855C5.75887 27.9863 4.93179 27.9878 4.35198 27.9901C4.06179 27.9913 3.83508 27.9927 3.68101 27.9943C3.60343 27.9951 3.54722 27.9959 3.51145 27.9968L3.49717 27.9971C3.47122 27.9993 3.44508 28.0002 3.41883 27.9999C3.16658 27.9574 2.83458 27.7485 2.7465 27.6407C2.70869 27.5801 2.66017 27.4789 2.64593 27.4404C2.62398 27.3763 2.61502 27.3233 2.6127 27.3096L2.6126 27.309C2.60631 27.2719 2.60377 27.2412 2.60303 27.2323C2.60098 27.2075 2.59992 27.1834 2.59932 27.1683C2.59798 27.1342 2.59696 27.0902 2.59609 27.0409C2.59432 26.9404 2.59286 26.7961 2.59164 26.6166C2.58921 26.2564 2.5877 25.7434 2.58688 25.1296C2.58525 23.9016 2.58642 22.265 2.58869 20.6291C2.59096 18.993 2.59435 17.3571 2.59716 16.1301C2.59857 15.5167 2.59984 15.0054 2.60075 14.6476L2.60222 14.0875L2.60223 2.45468C2.60223 1.99814 2.97232 1.62805 3.42885 1.62805H4.07983V0.826629ZM4.25548 3.2813H4.90645C5.36299 3.2813 5.73308 2.91121 5.73308 2.45468V1.65326H21.9082V2.45468C21.9082 2.91121 22.2782 3.2813 22.7348 3.2813H23.7606V26.3455L23.6809 26.3453C23.1033 26.3445 22.2781 26.3433 21.2877 26.3419C19.307 26.3392 16.6656 26.336 14.0229 26.3339C11.3804 26.3317 8.73619 26.3307 6.75005 26.3323C5.75713 26.3331 4.92788 26.3345 4.34531 26.3369C4.31046 26.337 4.27646 26.3372 4.24335 26.3373C4.24181 26.011 4.24077 25.6 4.24014 25.1274C4.23851 23.9018 4.23967 22.2669 4.24195 20.6314C4.24422 18.996 4.2476 17.3606 4.25042 16.1339C4.25183 15.5206 4.25309 15.0095 4.25401 14.6518L4.25548 14.0898C4.25548 14.0897 4.25548 14.0897 3.42885 14.0874L4.25548 14.0898L4.25548 3.2813Z" fill="currentColor"/>
<path d="M9.40412 4.23566H6.2559C6.02764 4.23566 5.84259 4.4207 5.84259 4.64897V6.80358C5.84259 7.03185 6.02764 7.2169 6.2559 7.2169H9.40412C9.63239 7.2169 9.81744 7.03185 9.81744 6.80358V4.64897C9.81744 4.4207 9.63239 4.23566 9.40412 4.23566Z" fill="currentColor"/>
<path d="M9.40412 10.3085H6.2559C6.02764 10.3085 5.84259 10.4935 5.84259 10.7218V12.8764C5.84259 13.1047 6.02764 13.2897 6.2559 13.2897H9.40412C9.63239 13.2897 9.81744 13.1047 9.81744 12.8764V10.7218C9.81744 10.4935 9.63239 10.3085 9.40412 10.3085Z" fill="currentColor"/>
<path d="M9.40412 16.3809H6.2559C6.02764 16.3809 5.84259 16.5659 5.84259 16.7942V18.9488C5.84259 19.1771 6.02764 19.3621 6.2559 19.3621H9.40412C9.63239 19.3621 9.81744 19.1771 9.81744 18.9488V16.7942C9.81744 16.5659 9.63239 16.3809 9.40412 16.3809Z" fill="currentColor"/>
<path d="M9.40412 22.4537H6.2559C6.02764 22.4537 5.84259 22.6388 5.84259 22.867V25.0217C5.84259 25.2499 6.02764 25.435 6.2559 25.435H9.40412C9.63239 25.435 9.81744 25.2499 9.81744 25.0217V22.867C9.81744 22.6388 9.63239 22.4537 9.40412 22.4537Z" fill="currentColor"/>
<path d="M15.5873 4.23566H12.4391C12.2109 4.23566 12.0258 4.4207 12.0258 4.64897V6.80358C12.0258 7.03185 12.2109 7.2169 12.4391 7.2169H15.5873C15.8156 7.2169 16.0007 7.03185 16.0007 6.80358V4.64897C16.0007 4.4207 15.8156 4.23566 15.5873 4.23566Z" fill="currentColor"/>
<path d="M15.5873 10.3085H12.4391C12.2109 10.3085 12.0258 10.4935 12.0258 10.7218V12.8764C12.0258 13.1047 12.2109 13.2897 12.4391 13.2897H15.5873C15.8156 13.2897 16.0007 13.1047 16.0007 12.8764V10.7218C16.0007 10.4935 15.8156 10.3085 15.5873 10.3085Z" fill="currentColor"/>
<path d="M15.5873 16.3809H12.4391C12.2109 16.3809 12.0258 16.5659 12.0258 16.7942V18.9488C12.0258 19.1771 12.2109 19.3621 12.4391 19.3621H15.5873C15.8156 19.3621 16.0007 19.1771 16.0007 18.9488V16.7942C16.0007 16.5659 15.8156 16.3809 15.5873 16.3809Z" fill="currentColor"/>
<path d="M15.5873 22.4537H12.4391C12.2109 22.4537 12.0258 22.6388 12.0258 22.867V25.0217C12.0258 25.2499 12.2109 25.435 12.4391 25.435H15.5873C15.8156 25.435 16.0007 25.2499 16.0007 25.0217V22.867C16.0007 22.6388 15.8156 22.4537 15.5873 22.4537Z" fill="currentColor"/>
<path d="M21.5494 4.23566H18.4012C18.1729 4.23566 17.9879 4.4207 17.9879 4.64897V6.80358C17.9879 7.03185 18.1729 7.2169 18.4012 7.2169H21.5494C21.7777 7.2169 21.9627 7.03185 21.9627 6.80358V4.64897C21.9627 4.4207 21.7777 4.23566 21.5494 4.23566Z" fill="currentColor"/>
<path d="M21.5494 10.3085H18.4012C18.1729 10.3085 17.9879 10.4935 17.9879 10.7218V12.8764C17.9879 13.1047 18.1729 13.2897 18.4012 13.2897H21.5494C21.7777 13.2897 21.9627 13.1047 21.9627 12.8764V10.7218C21.9627 10.4935 21.7777 10.3085 21.5494 10.3085Z" fill="currentColor"/>
<path d="M21.5494 16.3809H18.4012C18.1729 16.3809 17.9879 16.5659 17.9879 16.7942V18.9488C17.9879 19.1771 18.1729 19.3621 18.4012 19.3621H21.5494C21.7777 19.3621 21.9627 19.1771 21.9627 18.9488V16.7942C21.9627 16.5659 21.7777 16.3809 21.5494 16.3809Z" fill="currentColor"/>
<path d="M21.5494 22.4537H18.4012C18.1729 22.4537 17.9879 22.6388 17.9879 22.867V25.0217C17.9879 25.2499 18.1729 25.435 18.4012 25.435H21.5494C21.7777 25.435 21.9627 25.2499 21.9627 25.0217V22.867C21.9627 22.6388 21.7777 22.4537 21.5494 22.4537Z" fill="currentColor"/>
</svg>
